<?xml version="1.0" standalone="no"?>
<!DOCTYPE svg PUBLIC "-//W3C//DTD SVG 20010904//EN"
 "http://www.w3.org/TR/2001/REC-SVG-20010904/DTD/svg10.dtd">
<svg version="1.0" xmlns="http://www.w3.org/2000/svg"
 width="512.000000pt" height="512.000000pt" viewBox="0 0 512.000000 512.000000"
 preserveAspectRatio="xMidYMid meet">

<g transform="translate(0.000000,512.000000) scale(0.100000,-0.100000)"
fill="#000000" stroke="none">
<path d="M2300 5111 c-400 -27 -743 -209 -973 -516 -127 -170 -223 -421 -248
-655 -6 -60 -9 -363 -6 -830 4 -795 3 -780 62 -985 35 -123 149 -351 229 -456
79 -105 205 -230 311 -310 101 -75 332 -191 450 -224 159 -46 258 -59 435 -59
262 0 436 40 665 154 301 149 516 364 665 665 72 144 108 252 138 410 15 80
17 176 17 875 0 784 0 785 -23 890 -63 284 -163 472 -351 661 -202 202 -418
313 -708 363 -103 18 -493 28 -663 17z m348 -857 c20 -8 52 -29 70 -47 54 -52
62 -99 62 -367 0 -179 -4 -248 -15 -286 -57 -192 -353 -192 -410 0 -21 71 -21
501 0 572 16 55 60 104 115 128 46 20 131 20 178 0z"/>
<path d="M3133 838 c-18 -6 -133 -92 -255 -191 -260 -211 -283 -227 -315 -227
-37 0 -52 11 -291 204 -123 100 -238 189 -255 198 -20 11 -55 17 -93 18 -77 0
-137 -30 -179 -89 -26 -37 -30 -51 -30 -110 0 -56 4 -74 26 -107 31 -47 505
-432 577 -468 156 -79 337 -77 492 5 63 34 543 420 574 462 17 22 21 43 21 95
-2 161 -126 257 -272 210z"/>
</g>
</svg>
